<mxfile host="app.diagrams.net" agent="Mozilla/5.0 (Macintosh; Intel Mac OS X 10_15_7) AppleWebKit/605.1.15 (KHTML, like Gecko) Version/17.5 Safari/605.1.15" version="27.0.8" pages="3">
  <diagram name="Page-1" id="5tZuhOLvTFQBJwN5gOeq">
    <mxGraphModel dx="1746" dy="4519" grid="1" gridSize="10" guides="1" tooltips="1" connect="1" arrows="1" fold="1" page="1" pageScale="1" pageWidth="827" pageHeight="1169" math="0" shadow="0">
      <root>
        <mxCell id="0" />
        <mxCell id="1" parent="0" />
        <mxCell id="fGkGIIxjetBHrvid8smR-1" value="เเบบฝึกหัด ทำผังงาน&lt;div&gt;-โจทย์ ให้นักศึกษาเขียนขั้นตอนการทำไข่เจียว&lt;/div&gt;&lt;div&gt;1. เตรียมไข่ กระทะ เครื่องปรุง เตาเเก๊ส นํ้ามัน ตะหลิว&lt;/div&gt;&lt;div&gt;2. ตอกไข่&lt;/div&gt;&lt;div&gt;3. ปรุงไข่ กับเครื่องปรุง&lt;/div&gt;&lt;div&gt;4. ตีไข่&lt;/div&gt;&lt;div&gt;5. ตั้งกระทะ&lt;/div&gt;&lt;div&gt;6. เทนํ้ามัน&lt;/div&gt;&lt;div&gt;7. ทอดไข่&lt;/div&gt;&lt;div&gt;8. กลับด้านไข่&lt;/div&gt;&lt;div&gt;9. จัดไส่จาน&lt;/div&gt;&lt;div&gt;10. ตกเเต่งไข่เจียว&lt;/div&gt;&lt;div&gt;&lt;br&gt;&lt;/div&gt;&lt;div&gt;&lt;br&gt;&lt;/div&gt;&lt;div&gt;&lt;br&gt;&lt;/div&gt;" style="text;html=1;align=center;verticalAlign=middle;resizable=0;points=[];autosize=1;strokeColor=none;fillColor=none;fontSize=30;" parent="1" vertex="1">
          <mxGeometry x="30" y="-3440" width="660" height="550" as="geometry" />
        </mxCell>
        <mxCell id="MAahrGGkmRwuDHcS9Dz1-1" value="Text" style="text;html=1;align=center;verticalAlign=middle;resizable=0;points=[];autosize=1;strokeColor=none;fillColor=none;" vertex="1" parent="1">
          <mxGeometry x="805" y="-172" width="50" height="30" as="geometry" />
        </mxCell>
        <mxCell id="MAahrGGkmRwuDHcS9Dz1-33" style="edgeStyle=orthogonalEdgeStyle;rounded=0;orthogonalLoop=1;jettySize=auto;html=1;entryX=0.5;entryY=0;entryDx=0;entryDy=0;" edge="1" parent="1" source="MAahrGGkmRwuDHcS9Dz1-2" target="MAahrGGkmRwuDHcS9Dz1-5">
          <mxGeometry relative="1" as="geometry" />
        </mxCell>
        <mxCell id="MAahrGGkmRwuDHcS9Dz1-2" value="&lt;font style=&quot;font-size: 25px;&quot;&gt;เริ่มต้น&lt;/font&gt;" style="rounded=1;whiteSpace=wrap;html=1;arcSize=45;" vertex="1" parent="1">
          <mxGeometry x="1160" y="-3310" width="200" height="60" as="geometry" />
        </mxCell>
        <mxCell id="MAahrGGkmRwuDHcS9Dz1-3" value="&lt;span style=&quot;font-size: 25px;&quot;&gt;สิ้นสุด&lt;/span&gt;" style="rounded=1;whiteSpace=wrap;html=1;arcSize=45;" vertex="1" parent="1">
          <mxGeometry x="1160" y="-1770" width="200" height="60" as="geometry" />
        </mxCell>
        <mxCell id="MAahrGGkmRwuDHcS9Dz1-34" style="edgeStyle=orthogonalEdgeStyle;rounded=0;orthogonalLoop=1;jettySize=auto;html=1;exitX=0.5;exitY=1;exitDx=0;exitDy=0;entryX=0.5;entryY=0;entryDx=0;entryDy=0;" edge="1" parent="1" source="MAahrGGkmRwuDHcS9Dz1-5" target="MAahrGGkmRwuDHcS9Dz1-7">
          <mxGeometry relative="1" as="geometry" />
        </mxCell>
        <mxCell id="MAahrGGkmRwuDHcS9Dz1-5" value="&lt;span style=&quot;caret-color: rgb(255, 255, 255); font-family: Helvetica; font-size: 30px; font-style: normal; font-variant-caps: normal; font-weight: 400; letter-spacing: normal; text-align: center; text-indent: 0px; text-transform: none; white-space: nowrap; word-spacing: 0px; -webkit-text-stroke-width: 0px; text-decoration: none; float: none; display: inline !important;&quot;&gt;เตรียมไข่ กระทะ เครื่องปรุง เตาเเก๊ส นํ้ามัน ตะหลิว&lt;/span&gt;" style="shape=parallelogram;perimeter=parallelogramPerimeter;whiteSpace=wrap;html=1;fixedSize=1;labelBackgroundColor=none;fontColor=default;" vertex="1" parent="1">
          <mxGeometry x="945" y="-3160" width="630" height="90" as="geometry" />
        </mxCell>
        <mxCell id="MAahrGGkmRwuDHcS9Dz1-36" value="" style="edgeStyle=orthogonalEdgeStyle;rounded=0;orthogonalLoop=1;jettySize=auto;html=1;" edge="1" parent="1" source="MAahrGGkmRwuDHcS9Dz1-7" target="MAahrGGkmRwuDHcS9Dz1-9">
          <mxGeometry relative="1" as="geometry" />
        </mxCell>
        <mxCell id="MAahrGGkmRwuDHcS9Dz1-7" value="ตอกไข่" style="whiteSpace=wrap;html=1;fontSize=25;" vertex="1" parent="1">
          <mxGeometry x="1200" y="-2982" width="120" height="52" as="geometry" />
        </mxCell>
        <mxCell id="MAahrGGkmRwuDHcS9Dz1-37" style="edgeStyle=orthogonalEdgeStyle;rounded=0;orthogonalLoop=1;jettySize=auto;html=1;entryX=0.5;entryY=0;entryDx=0;entryDy=0;" edge="1" parent="1" source="MAahrGGkmRwuDHcS9Dz1-9" target="MAahrGGkmRwuDHcS9Dz1-10">
          <mxGeometry relative="1" as="geometry" />
        </mxCell>
        <mxCell id="MAahrGGkmRwuDHcS9Dz1-9" value="ปรุงไข่ กับเครื่องปรุง" style="whiteSpace=wrap;html=1;fontSize=25;" vertex="1" parent="1">
          <mxGeometry x="1145" y="-2840" width="230" height="50" as="geometry" />
        </mxCell>
        <mxCell id="MAahrGGkmRwuDHcS9Dz1-38" style="edgeStyle=orthogonalEdgeStyle;rounded=0;orthogonalLoop=1;jettySize=auto;html=1;entryX=0.5;entryY=0;entryDx=0;entryDy=0;" edge="1" parent="1" source="MAahrGGkmRwuDHcS9Dz1-10" target="MAahrGGkmRwuDHcS9Dz1-11">
          <mxGeometry relative="1" as="geometry" />
        </mxCell>
        <mxCell id="MAahrGGkmRwuDHcS9Dz1-10" value="&lt;font style=&quot;font-size: 25px;&quot;&gt;ตีไข่&lt;/font&gt;" style="whiteSpace=wrap;html=1;" vertex="1" parent="1">
          <mxGeometry x="1200" y="-2700" width="120" height="40" as="geometry" />
        </mxCell>
        <mxCell id="MAahrGGkmRwuDHcS9Dz1-39" style="edgeStyle=orthogonalEdgeStyle;rounded=0;orthogonalLoop=1;jettySize=auto;html=1;entryX=0.5;entryY=0;entryDx=0;entryDy=0;" edge="1" parent="1" source="MAahrGGkmRwuDHcS9Dz1-11" target="MAahrGGkmRwuDHcS9Dz1-12">
          <mxGeometry relative="1" as="geometry" />
        </mxCell>
        <mxCell id="MAahrGGkmRwuDHcS9Dz1-11" value="&lt;font style=&quot;font-size: 25px;&quot;&gt;ตั้งกระทะ&lt;/font&gt;" style="whiteSpace=wrap;html=1;" vertex="1" parent="1">
          <mxGeometry x="1200" y="-2580" width="120" height="60" as="geometry" />
        </mxCell>
        <mxCell id="MAahrGGkmRwuDHcS9Dz1-40" style="edgeStyle=orthogonalEdgeStyle;rounded=0;orthogonalLoop=1;jettySize=auto;html=1;entryX=0.5;entryY=0;entryDx=0;entryDy=0;" edge="1" parent="1" source="MAahrGGkmRwuDHcS9Dz1-12" target="MAahrGGkmRwuDHcS9Dz1-19">
          <mxGeometry relative="1" as="geometry" />
        </mxCell>
        <mxCell id="MAahrGGkmRwuDHcS9Dz1-12" value="&lt;font style=&quot;font-size: 25px;&quot;&gt;เทนํ้ามัน&lt;/font&gt;" style="whiteSpace=wrap;html=1;" vertex="1" parent="1">
          <mxGeometry x="1200" y="-2440" width="120" height="40" as="geometry" />
        </mxCell>
        <mxCell id="MAahrGGkmRwuDHcS9Dz1-41" style="edgeStyle=orthogonalEdgeStyle;rounded=0;orthogonalLoop=1;jettySize=auto;html=1;" edge="1" parent="1" source="MAahrGGkmRwuDHcS9Dz1-19">
          <mxGeometry relative="1" as="geometry">
            <mxPoint x="1260" y="-2180" as="targetPoint" />
          </mxGeometry>
        </mxCell>
        <mxCell id="MAahrGGkmRwuDHcS9Dz1-19" value="&lt;font style=&quot;font-size: 25px;&quot;&gt;ทอดไข่&lt;/font&gt;" style="whiteSpace=wrap;html=1;" vertex="1" parent="1">
          <mxGeometry x="1200" y="-2310" width="120" height="60" as="geometry" />
        </mxCell>
        <mxCell id="MAahrGGkmRwuDHcS9Dz1-42" style="edgeStyle=orthogonalEdgeStyle;rounded=0;orthogonalLoop=1;jettySize=auto;html=1;entryX=0.5;entryY=0;entryDx=0;entryDy=0;" edge="1" parent="1" source="MAahrGGkmRwuDHcS9Dz1-20" target="MAahrGGkmRwuDHcS9Dz1-21">
          <mxGeometry relative="1" as="geometry" />
        </mxCell>
        <mxCell id="MAahrGGkmRwuDHcS9Dz1-20" value="&lt;font style=&quot;font-size: 25px;&quot;&gt;กลับด้านไข่&lt;/font&gt;" style="whiteSpace=wrap;html=1;" vertex="1" parent="1">
          <mxGeometry x="1200" y="-2180" width="120" height="60" as="geometry" />
        </mxCell>
        <mxCell id="MAahrGGkmRwuDHcS9Dz1-46" style="edgeStyle=orthogonalEdgeStyle;rounded=0;orthogonalLoop=1;jettySize=auto;html=1;" edge="1" parent="1" source="MAahrGGkmRwuDHcS9Dz1-21">
          <mxGeometry relative="1" as="geometry">
            <mxPoint x="1260" y="-1900" as="targetPoint" />
          </mxGeometry>
        </mxCell>
        <mxCell id="MAahrGGkmRwuDHcS9Dz1-21" value="&lt;font style=&quot;font-size: 25px;&quot;&gt;จัดไส่จาน&lt;/font&gt;" style="whiteSpace=wrap;html=1;" vertex="1" parent="1">
          <mxGeometry x="1195" y="-2030" width="130" height="60" as="geometry" />
        </mxCell>
        <mxCell id="MAahrGGkmRwuDHcS9Dz1-43" style="edgeStyle=orthogonalEdgeStyle;rounded=0;orthogonalLoop=1;jettySize=auto;html=1;exitX=0.5;exitY=1;exitDx=0;exitDy=0;" edge="1" parent="1" source="MAahrGGkmRwuDHcS9Dz1-21" target="MAahrGGkmRwuDHcS9Dz1-21">
          <mxGeometry relative="1" as="geometry" />
        </mxCell>
        <mxCell id="MAahrGGkmRwuDHcS9Dz1-47" style="edgeStyle=orthogonalEdgeStyle;rounded=0;orthogonalLoop=1;jettySize=auto;html=1;" edge="1" parent="1" source="MAahrGGkmRwuDHcS9Dz1-22">
          <mxGeometry relative="1" as="geometry">
            <mxPoint x="1260" y="-1770" as="targetPoint" />
          </mxGeometry>
        </mxCell>
        <mxCell id="MAahrGGkmRwuDHcS9Dz1-22" value="&lt;font style=&quot;font-size: 25px;&quot;&gt;ตกเเต่งไข่&lt;/font&gt;" style="whiteSpace=wrap;html=1;" vertex="1" parent="1">
          <mxGeometry x="1190" y="-1900" width="140" height="50" as="geometry" />
        </mxCell>
      </root>
    </mxGraphModel>
  </diagram>
  <diagram id="byn5rIWlT6ig04iHYriy" name="Page-2">
    <mxGraphModel dx="2573" dy="1012" grid="1" gridSize="10" guides="1" tooltips="1" connect="1" arrows="1" fold="1" page="1" pageScale="1" pageWidth="827" pageHeight="1169" math="0" shadow="0">
      <root>
        <mxCell id="0" />
        <mxCell id="1" parent="0" />
        <mxCell id="ckJn-bKvV79yMxMAJ7Ma-1" value="โจยท์ให้นักศึกษาทำ โปรมเเกรมสกุลลเงินโดยให้เเปลงสกุลเงิน บาท เป็น ดอลลาร์ผุ้ใช้กรอกจำนวนเงินเป็นบาท&lt;div&gt;ดอลลาร์ 1 =35บาท บังคับ รับข้อมูลผ่านคีย์บอร์ดเเละเเสดงผลลัทธ์ผ่านทางหน้าจอ&lt;br&gt;&lt;div&gt;&lt;br&gt;&lt;/div&gt;&lt;/div&gt;" style="text;html=1;align=center;verticalAlign=middle;resizable=0;points=[];autosize=1;strokeColor=none;fillColor=none;fontSize=20;" vertex="1" parent="1">
          <mxGeometry x="-350" y="20" width="910" height="90" as="geometry" />
        </mxCell>
        <mxCell id="QF-xAVAhQdcnucniNbgE-3" value="&lt;font style=&quot;font-size: 25px;&quot;&gt;เริ่มต้น&lt;/font&gt;" style="rounded=1;whiteSpace=wrap;html=1;arcSize=50;" vertex="1" parent="1">
          <mxGeometry x="140" y="180" width="200" height="60" as="geometry" />
        </mxCell>
        <mxCell id="J1HDekMbHruPvYyIYEMZ-16" style="edgeStyle=orthogonalEdgeStyle;rounded=0;orthogonalLoop=1;jettySize=auto;html=1;" edge="1" parent="1" source="J1HDekMbHruPvYyIYEMZ-1">
          <mxGeometry relative="1" as="geometry">
            <mxPoint x="242" y="490" as="targetPoint" />
          </mxGeometry>
        </mxCell>
        <mxCell id="J1HDekMbHruPvYyIYEMZ-1" value="&lt;font style=&quot;font-size: 25px;&quot;&gt;รับข้อมูล&lt;/font&gt;" style="shape=manualInput;whiteSpace=wrap;html=1;" vertex="1" parent="1">
          <mxGeometry x="167" y="300" width="150" height="80" as="geometry" />
        </mxCell>
        <mxCell id="J1HDekMbHruPvYyIYEMZ-17" style="edgeStyle=orthogonalEdgeStyle;rounded=0;orthogonalLoop=1;jettySize=auto;html=1;" edge="1" parent="1" source="J1HDekMbHruPvYyIYEMZ-8">
          <mxGeometry relative="1" as="geometry">
            <mxPoint x="242" y="640" as="targetPoint" />
          </mxGeometry>
        </mxCell>
        <mxCell id="J1HDekMbHruPvYyIYEMZ-8" value="&lt;font style=&quot;font-size: 25px;&quot;&gt;เเปลงค่าเงินดอลลาร์&lt;/font&gt;" style="whiteSpace=wrap;html=1;" vertex="1" parent="1">
          <mxGeometry x="132" y="490" width="220" height="60" as="geometry" />
        </mxCell>
        <mxCell id="J1HDekMbHruPvYyIYEMZ-18" style="edgeStyle=orthogonalEdgeStyle;rounded=0;orthogonalLoop=1;jettySize=auto;html=1;" edge="1" parent="1" source="J1HDekMbHruPvYyIYEMZ-9">
          <mxGeometry relative="1" as="geometry">
            <mxPoint x="240" y="820" as="targetPoint" />
          </mxGeometry>
        </mxCell>
        <mxCell id="J1HDekMbHruPvYyIYEMZ-9" value="&lt;font style=&quot;font-size: 25px;&quot;&gt;เเสดงผล&lt;/font&gt;" style="shape=display;whiteSpace=wrap;html=1;" vertex="1" parent="1">
          <mxGeometry x="140" y="640" width="200" height="80" as="geometry" />
        </mxCell>
        <mxCell id="J1HDekMbHruPvYyIYEMZ-10" value="&lt;font style=&quot;font-size: 25px;&quot;&gt;เสร็จสิ้น&lt;/font&gt;" style="rounded=1;whiteSpace=wrap;html=1;arcSize=50;" vertex="1" parent="1">
          <mxGeometry x="150" y="820" width="180" height="60" as="geometry" />
        </mxCell>
        <mxCell id="J1HDekMbHruPvYyIYEMZ-13" style="edgeStyle=orthogonalEdgeStyle;rounded=0;orthogonalLoop=1;jettySize=auto;html=1;entryX=0.487;entryY=0.257;entryDx=0;entryDy=0;entryPerimeter=0;" edge="1" parent="1" source="QF-xAVAhQdcnucniNbgE-3" target="J1HDekMbHruPvYyIYEMZ-1">
          <mxGeometry relative="1" as="geometry" />
        </mxCell>
      </root>
    </mxGraphModel>
  </diagram>
  <diagram id="Er8pPHNwrhigU-WDuWFZ" name="Page-3">
    <mxGraphModel dx="1746" dy="1012" grid="1" gridSize="10" guides="1" tooltips="1" connect="1" arrows="1" fold="1" page="1" pageScale="1" pageWidth="827" pageHeight="1169" math="0" shadow="0">
      <root>
        <mxCell id="0" />
        <mxCell id="1" parent="0" />
        <mxCell id="woLdO2_HPJQBUE1bjRzm-1" value="โจทย์ ให้นักศึกษาเขียนผังงานโปรมเเกรมดังนี้&lt;div&gt;ทำโปรมเเกรม คำนวนหาจำนวนชั่วโมงเเละให้โปรมเเกรมเอาเวลาชั่วโมงเริ่มต้น เเละชั่วโมงสิ้นสุด&lt;/div&gt;&lt;div&gt;เเละให้โปรเเกรมเอาเวลาชั่วโมงมาสิ้นสุด เเละชั่วโมงเริ่มต้น มาลบกันเเละเเสดงผลลัพทธ์ผ่านหน้าจอ&lt;/div&gt;&lt;div&gt;&lt;br&gt;&lt;/div&gt;" style="text;html=1;align=center;verticalAlign=middle;resizable=0;points=[];autosize=1;strokeColor=none;fillColor=none;fontSize=16;" vertex="1" parent="1">
          <mxGeometry x="70" y="20" width="660" height="90" as="geometry" />
        </mxCell>
        <mxCell id="_kY2noC3BTjuGB3l60_2-10" style="edgeStyle=orthogonalEdgeStyle;rounded=0;orthogonalLoop=1;jettySize=auto;html=1;entryX=0.5;entryY=0;entryDx=0;entryDy=0;" edge="1" parent="1" source="oPqOrQFdyvkjI4avLBR0-1" target="z9ywD593HONVwI78_MXN-1">
          <mxGeometry relative="1" as="geometry" />
        </mxCell>
        <mxCell id="oPqOrQFdyvkjI4avLBR0-1" value="&lt;font style=&quot;font-size: 25px;&quot;&gt;เริ่มต้น&lt;/font&gt;" style="rounded=1;whiteSpace=wrap;html=1;arcSize=50;" vertex="1" parent="1">
          <mxGeometry x="350" y="140" width="200" height="60" as="geometry" />
        </mxCell>
        <mxCell id="_kY2noC3BTjuGB3l60_2-6" style="edgeStyle=orthogonalEdgeStyle;rounded=0;orthogonalLoop=1;jettySize=auto;html=1;entryX=0.5;entryY=0;entryDx=0;entryDy=0;" edge="1" parent="1" source="z9ywD593HONVwI78_MXN-1" target="_kY2noC3BTjuGB3l60_2-1">
          <mxGeometry relative="1" as="geometry" />
        </mxCell>
        <mxCell id="z9ywD593HONVwI78_MXN-1" value="&lt;font style=&quot;font-size: 25px;&quot;&gt;ชั่วโมงเริ่มต้นเเละสิ้นสุด&lt;/font&gt;" style="shape=parallelogram;perimeter=parallelogramPerimeter;whiteSpace=wrap;html=1;fixedSize=1;" vertex="1" parent="1">
          <mxGeometry x="310" y="290" width="280" height="60" as="geometry" />
        </mxCell>
        <mxCell id="_kY2noC3BTjuGB3l60_2-11" style="edgeStyle=orthogonalEdgeStyle;rounded=0;orthogonalLoop=1;jettySize=auto;html=1;entryX=0.5;entryY=0;entryDx=0;entryDy=0;" edge="1" parent="1" source="_kY2noC3BTjuGB3l60_2-1" target="_kY2noC3BTjuGB3l60_2-9">
          <mxGeometry relative="1" as="geometry" />
        </mxCell>
        <mxCell id="_kY2noC3BTjuGB3l60_2-1" value="&lt;font style=&quot;font-size: 25px;&quot;&gt;เวลาชั่วโมงสิ้นสุดเเละเริ่มต้น&lt;/font&gt;" style="whiteSpace=wrap;html=1;" vertex="1" parent="1">
          <mxGeometry x="305" y="420" width="290" height="60" as="geometry" />
        </mxCell>
        <mxCell id="_kY2noC3BTjuGB3l60_2-17" style="edgeStyle=orthogonalEdgeStyle;rounded=0;orthogonalLoop=1;jettySize=auto;html=1;" edge="1" parent="1" source="_kY2noC3BTjuGB3l60_2-4">
          <mxGeometry relative="1" as="geometry">
            <mxPoint x="450" y="870" as="targetPoint" />
          </mxGeometry>
        </mxCell>
        <mxCell id="_kY2noC3BTjuGB3l60_2-4" value="&lt;font style=&quot;font-size: 25px;&quot;&gt;เเสดงผลลัพทธ์&lt;/font&gt;" style="shape=display;whiteSpace=wrap;html=1;" vertex="1" parent="1">
          <mxGeometry x="330" y="710" width="240" height="70" as="geometry" />
        </mxCell>
        <mxCell id="_kY2noC3BTjuGB3l60_2-14" value="" style="edgeStyle=orthogonalEdgeStyle;rounded=0;orthogonalLoop=1;jettySize=auto;html=1;" edge="1" parent="1" source="_kY2noC3BTjuGB3l60_2-9" target="_kY2noC3BTjuGB3l60_2-4">
          <mxGeometry relative="1" as="geometry" />
        </mxCell>
        <mxCell id="_kY2noC3BTjuGB3l60_2-9" value="&lt;font style=&quot;font-size: 25px;&quot;&gt;มาลบกัน&lt;/font&gt;" style="whiteSpace=wrap;html=1;" vertex="1" parent="1">
          <mxGeometry x="320" y="555" width="260" height="60" as="geometry" />
        </mxCell>
        <mxCell id="_kY2noC3BTjuGB3l60_2-16" value="&lt;font style=&quot;font-size: 25px;&quot;&gt;เสร็จสิ้น&lt;/font&gt;" style="rounded=1;whiteSpace=wrap;html=1;arcSize=37;" vertex="1" parent="1">
          <mxGeometry x="350" y="870" width="200" height="60" as="geometry" />
        </mxCell>
      </root>
    </mxGraphModel>
  </diagram>
</mxfile>
